<?xml version="1.0" encoding="UTF-8"?>
<svg width="365px" height="332px" viewBox="0 0 365 332" version="1.1" xmlns="http://www.w3.org/2000/svg" xmlns:xlink="http://www.w3.org/1999/xlink">
    <title>Conscripts</title>
    <defs>
        <linearGradient x1="60%" y1="5%" x2="77%" y2="73%" id="linearGradient-1">
            <stop stop-color="#4A7FB5" offset="0%"></stop>
            <stop stop-color="#2C6AA0" offset="100%"></stop>
        </linearGradient>
        <linearGradient x1="23%" y1="33%" x2="90%" y2="58%" id="linearGradient-2">
            <stop stop-color="#3F75AB" offset="0%"></stop>
            <stop stop-color="#245F94" offset="100%"></stop>
        </linearGradient>
        <linearGradient x1="64%" y1="8%" x2="68%" y2="86%" id="linearGradient-3">
            <stop stop-color="#2C6AA0" offset="0%"></stop>
            <stop stop-color="#17477C" offset="100%"></stop>
        </linearGradient>
        <linearGradient x1="64%" y1="0%" x2="16%" y2="43%" id="linearGradient-4">
            <stop stop-color="#17477C" offset="0%"></stop>
            <stop stop-color="#0E2F52" offset="100%"></stop>
        </linearGradient>
        <linearGradient x1="50%" y1="-48%" x2="50%" y2="136%" id="linearGradient-5">
            <stop stop-color="#EAF6FF" offset="0%"></stop>
            <stop stop-color="#AFC7DD" offset="100%"></stop>
        </linearGradient>
        <linearGradient x1="34%" y1="100%" x2="50%" y2="36%" id="linearGradient-6">
            <stop stop-color="#5B8FC6" offset="0%"></stop>
            <stop stop-color="#AFC7DD" offset="100%"></stop>
        </linearGradient>
    </defs>
    <g id="Page-1" stroke="none" stroke-width="1" fill="none" fill-rule="evenodd">
        <g id="conscripts" fill-rule="nonzero">
            <path d="M182.5,165.909034 C182.5,164.857034 182.223,164.024034 181.697,163.113034 L91.373,6.668214 C98.816,2.371674 107.368,0 116.259,0 L248.74,0 C266.5224,0 282.9537,9.486684 291.8447,24.886334 L357.84301,139.199034 C362.5316,147.321034 365,156.532034 365,165.909034 C364.96499,175.216034 362.49809,184.555034 357.84301,192.618034 L291.8445,306.931034 C282.9536,322.331034 266.5223,331.818034 248.74,331.818034 L116.259,331.818034 C107.368,331.818034 98.815,329.447034 91.373,325.150034 L181.898,168.358034 C182.249111,167.750034 182.451679,166.912108 182.492359,166.178566 L182.5,165.909034 Z" id="right" fill="url(#linearGradient-1)"></path>
            <path d="M116.259,1.42108547e-14 L248.74,1.42108547e-14 C266.5224,1.42108547e-14 282.9537,9.486684 291.8447,24.886334 L357.84301,139.199034 C362.5316,147.321034 365,156.532034 365,165.909034 L182.5,165.909034 C182.5,164.857034 182.223,164.024034 181.697,163.113034 L91.373,6.668214 C98.816,2.371674 107.368,1.42108547e-14 116.259,1.42108547e-14 Z" id="top" fill="url(#linearGradient-2)"></path>
            <path d="M116.259,331.818034 L248.74,331.818034 C266.5223,331.818034 282.9536,322.331034 291.8445,306.931034 L357.84301,192.618034 C362.49809,184.555034 364.96499,175.216034 365,165.909034 L182.5,165.909034 C182.5,166.699034 182.293,167.674034 181.898,168.358034 L91.374,325.150034 C98.815,329.447034 107.368,331.818034 116.259,331.818034 Z" id="bottom" fill="url(#linearGradient-3)"></path>
            <path d="M7.157,192.616034 L73.156,306.930034 C77.601,314.629034 83.932,320.851034 91.374,325.148034 L181.898,168.356034 C182.293,167.672034 182.5,166.897034 182.5,166.108034 C182.5,165.056034 182.223,164.022034 181.697,163.111034 L91.373,6.666624 C83.932,10.963134 77.601,17.184734 73.156,24.884634 L7.157,139.197034 C2.469,147.318034 0,156.530034 0,165.907034 C0,175.284034 2.469,184.497034 7.157,192.616034 Z" id="left" fill="url(#linearGradient-4)"></path>
            <path d="M157.129471,259.619507 C159.94465,254.743474 165.027478,251.646456 170.60893,251.348149 L229.003487,251.445256 L229.009487,251.455668 C229.008568,251.462956 229.011669,251.466045 229.015487,251.466038 L273.844725,251.382381 L282.840675,251.400476 C283.992941,251.503102 285.113352,251.856644 286.121527,252.438714 C289.947867,254.647853 291.258869,259.540576 289.04973,263.366917 L267.593391,300.530386 C264.775007,305.41197 259.683809,308.510486 254.094869,308.802752 L195.719375,308.704637 L195.713375,308.694225 C195.714295,308.686937 195.711194,308.683848 195.707375,308.683855 L150.824974,308.76743 L141.882188,308.749417 C140.729921,308.646791 139.609511,308.293249 138.601336,307.711179 C134.774995,305.50204 133.463994,300.609317 135.673133,296.782976 L157.129471,259.619507 Z" id="underscore" fill="url(#linearGradient-5)"></path>
            <path d="M52.2890982,109.84033 L83.5685391,164.02711 C84.2829297,165.26468 84.2828706,166.789353 83.5683841,168.026869 L52.1003156,222.530656 C51.5430437,223.49587 51.5419709,224.684816 52.0975,225.651034 L52.9933802,227.209217 C52.9944601,227.211095 52.9955415,227.212972 52.9966244,227.214849 L81.1770276,276.044555 C82.2812608,277.957919 84.7275072,278.61385 86.6408718,277.509617 C87.2489884,277.158663 87.7540145,276.653824 88.1051933,276.045837 L145.510976,176.660732 C145.514325,176.654933 145.51766,176.649126 145.52098,176.643311 L148.14,172.056034 L148.14,172.056034 C149.229,170.148034 149.773,168.029034 149.773,165.911034 C149.773,163.792034 149.229,161.675034 148.14,159.765034 L145.495759,155.135366 C145.492586,155.129811 145.4894,155.124264 145.486201,155.118725 L118.255001,107.967694 C118.251906,107.962335 118.246188,107.959034 118.24,107.959034 C118.233812,107.959034 118.228094,107.955733 118.225,107.950373 L88.105074,55.7751108 C87.0006001,53.8618851 84.5542713,53.2062623 82.6410456,54.3107362 C82.0325776,54.6619948 81.5273609,55.1673218 81.176235,55.7758663 L52.2887093,105.841513 C51.5747538,107.078886 51.574902,108.603096 52.2890982,109.84033 Z" id="arrow" fill="url(#linearGradient-6)"></path>
        </g>
    </g>
</svg>